<svg viewBox="0 0 22 40" fill="#909090" xmlns="http://www.w3.org/2000/svg"><path d="M22 29C22 31.9174 20.8411 34.7153 18.7782 36.7782C16.7153 38.8411 13.9174 40 11 40C8.08262 40 5.28472 38.8411 3.22182 36.7782C1.15892 34.7153 0 31.9174 0 29L0 8C0 5.87827 0.842854 3.84344 2.34315 2.34315C3.84344 0.842856 5.87827 0 8 0C10.1217 0 12.1566 0.842856 13.6569 2.34315C15.1571 3.84344 16 5.87827 16 8L16 25C16 26.3261 15.4732 27.5979 14.5355 28.5355C13.5979 29.4732 12.3261 30 11 30C9.67392 30 8.40215 29.4732 7.46447 28.5355C6.52678 27.5979 6 26.3261 6 25L6 10H9V25C9 25.5304 9.21071 26.0391 9.58579 26.4142C9.96086 26.7893 10.4696 27 11 27C11.5304 27 12.0391 26.7893 12.4142 26.4142C12.7893 26.0391 13 25.5304 13 25V8C13 7.34339 12.8707 6.69321 12.6194 6.08658C12.3681 5.47995 11.9998 4.92876 11.5355 4.46447C11.0712 4.00017 10.52 3.63188 9.91342 3.3806C9.30679 3.12933 8.65661 3 8 3C7.34339 3 6.69321 3.12933 6.08658 3.3806C5.47995 3.63188 4.92876 4.00017 4.46447 4.46447C4.00017 4.92876 3.63188 5.47995 3.3806 6.08658C3.12933 6.69321 3 7.34339 3 8L3 29C3 31.1217 3.84285 33.1566 5.34315 34.6569C6.84344 36.1571 8.87827 37 11 37C13.1217 37 15.1566 36.1571 16.6569 34.6569C18.1571 33.1566 19 31.1217 19 29L19 10H22L22 29Z"></path></svg>