<svg viewBox="0 0 20 20" fill="#909090" xmlns="http://www.w3.org/2000/svg"><path d="M5 11C5 12.3261 5.52678 13.5979 6.46447 14.5355C7.40215 15.4732 8.67392 16 10 16C11.3261 16 12.5979 15.4732 13.5355 14.5355C14.4732 13.5979 15 12.3261 15 11L10 11H5Z"></path><circle cx="6.5" cy="7.5" r="1.5"></circle><circle cx="13.5" cy="7.5" r="1.5"></circle><path d="M20 10C20 15.5228 15.5228 20 10 20C4.47715 20 0 15.5228 0 10C0 4.47715 4.47715 0 10 0C15.5228 0 20 4.47715 20 10ZM2 10C2 14.4183 5.58172 18 10 18C14.4183 18 18 14.4183 18 10C18 5.58172 14.4183 2 10 2C5.58172 2 2 5.58172 2 10Z"></path></svg>